# xmcd
#
# Track frame offsets:
#	150
#	20588
#	42180
#	64678
#	82151
#	94890
#	111199
#	133652
#	153462
#	173931
#	198121
#	216556
#	238993
#	260285
#
# Disc length: 3814 seconds
#
# Revision: 1
# Processed by: cddbd v1.5.2PL0 Copyright (c) Steve Scherf et al.
# Submitted via: audiograbber 1.83.01
#
DISCID=cb0ee40e
DTITLE=The Hands - Everything Is Wonderful
DYEAR=2008
DGENRE=Soul
TTITLE0=Trouble
TTITLE1=If This Is What Love Feeld Like
TTITLE2=Right Time
TTITLE3=More And More And More
TTITLE4=Check Yourself
TTITLE5=We've Got All Night
TTITLE6=Crime
TTITLE7=Everything Is Wonderful
TTITLE8=Start Talking
TTITLE9=I Still Feel You
TTITLE10=Shoe Size
TTITLE11=Brother To Brother
TTITLE12=Big Brother
TTITLE13=Positivity
EXTD=
EXTT0=
EXTT1=
EXTT2=
EXTT3=
EXTT4=
EXTT5=
EXTT6=
EXTT7=
EXTT8=
EXTT9=
EXTT10=
EXTT11=
EXTT12=
EXTT13=
PLAYORDER=
